<svg width="16" height="14" viewBox="0 0 16 14" fill="none" xmlns="http://www.w3.org/2000/svg">
<path fill-rule="evenodd" clip-rule="evenodd" d="M14.6153 6.54484C14.5204 7.20266 14.2954 7.82788 13.9619 8.40282C13.9869 8.54517 13.9997 8.68905 13.9997 8.83356C13.9997 9.33544 13.8543 9.81576 13.5849 10.2522C13.4504 10.47 13.4158 10.7252 13.4025 10.8939C13.3873 11.0871 13.3924 11.2986 13.4062 11.5018C13.4217 11.7297 13.4497 11.969 13.4818 12.1947C13.2216 12.1188 12.9395 12.0426 12.6704 11.9819C12.4465 11.9314 12.2174 11.8883 12.0099 11.8669C11.8289 11.8482 11.5674 11.8337 11.3335 11.9094C10.8221 12.0747 10.2594 12.1669 9.66636 12.1669C8.96109 12.1669 8.31335 12.0417 7.74559 11.8242C7.60903 11.8304 7.47147 11.8336 7.33301 11.8336C6.52993 11.8336 5.75701 11.7279 5.03385 11.5328C6.08516 12.7487 7.81828 13.5002 9.66636 13.5002C10.3883 13.5002 11.0812 13.3894 11.7198 13.1857C11.7209 13.1857 11.723 13.1857 11.726 13.1856C11.7424 13.1853 11.7879 13.1844 11.8729 13.1932C12.0067 13.207 12.1786 13.2378 12.377 13.2826C12.7719 13.3716 13.2157 13.5031 13.5615 13.6129C14.2949 13.8457 15.0056 13.2057 14.8745 12.4614C14.8181 12.1411 14.7595 11.7501 14.7365 11.4114C14.7249 11.2411 14.7236 11.1014 14.7317 10.9988C14.7351 10.9563 14.7394 10.9296 14.7421 10.9155C15.1172 10.2941 15.333 9.58671 15.333 8.83356C15.333 7.98452 15.0693 7.20922 14.6153 6.54484Z" fill="#787A80"/>
<path fill-rule="evenodd" clip-rule="evenodd" d="M3.73109 3.29869C2.83245 3.98589 2.33306 4.88798 2.33306 5.83325C2.33306 6.30461 2.45577 6.75858 2.68599 7.18074C2.77367 7.34153 2.79854 7.50739 2.80744 7.61967C2.81714 7.7421 2.8123 7.86793 2.80166 7.9856C2.78034 8.22118 2.72949 8.4881 2.66849 8.75101C2.59715 9.05854 2.50572 9.38651 2.41296 9.69445C2.76512 9.56645 3.15003 9.43528 3.51493 9.32882C3.80985 9.24279 4.10767 9.16813 4.37274 9.12621C4.60108 9.09011 4.93243 9.05462 5.2177 9.15332C5.85792 9.37482 6.57411 9.49992 7.33306 9.49992C8.76451 9.49992 10.0358 9.05547 10.935 8.36781C11.8337 7.68062 12.3331 6.77853 12.3331 5.83325C12.3331 4.88798 11.8337 3.98589 10.935 3.29869C10.0358 2.61103 8.76451 2.16659 7.33306 2.16659C5.90162 2.16659 4.63034 2.61103 3.73109 3.29869ZM2.92116 2.23955C4.07283 1.35886 5.63489 0.833252 7.33306 0.833252C9.03123 0.833252 10.5933 1.35886 11.745 2.23955C12.8973 3.12072 13.6664 4.38529 13.6664 5.83325C13.6664 7.28121 12.8973 8.54579 11.745 9.42695C10.5933 10.3076 9.03123 10.8333 7.33306 10.8333C6.43769 10.8333 5.58244 10.6873 4.80591 10.4217C4.80513 10.4239 4.74215 10.4177 4.58098 10.4432C4.39521 10.4726 4.15809 10.5301 3.88836 10.6088C3.35138 10.7655 2.74835 10.9871 2.28902 11.1658C1.49327 11.4755 0.682633 10.7113 0.95074 9.89721C1.09284 9.46574 1.26043 8.92048 1.36966 8.44968C1.42468 8.21251 1.46039 8.01311 1.47375 7.86544C1.47839 7.81419 1.47958 7.77682 1.47932 7.75156C1.17246 7.16519 0.99973 6.51675 0.99973 5.83325C0.99973 4.38529 1.76887 3.12072 2.92116 2.23955Z" fill="#787A80"/>
</svg>
