<svg width="20" height="20" viewBox="0 0 20 20" fill="none" xmlns="http://www.w3.org/2000/svg">
<g clip-path="url(#clip0_2244_822)">
<path d="M9.99992 19.1667C15.0542 19.1667 19.1666 15.0546 19.1666 10C19.1666 9.12761 19.0448 8.26786 18.8037 7.44448C18.6849 7.0396 18.2621 6.80704 17.8561 6.92584C17.4508 7.04426 17.219 7.46854 17.3374 7.87342C17.5372 8.55749 17.6388 9.27326 17.6388 10C17.6388 14.2121 14.2119 17.6389 9.99992 17.6389C5.7879 17.6389 2.36103 14.2121 2.36103 10C2.36103 5.78802 5.7879 2.36115 9.99992 2.36115C11.5307 2.36115 13.0034 2.80874 14.2589 3.65525C14.6084 3.89117 15.0836 3.79848 15.3192 3.44898C15.5549 3.09912 15.463 2.6243 15.1131 2.38857C13.6043 1.37123 11.8363 0.833374 9.99992 0.833374C4.94568 0.833374 0.833252 4.94543 0.833252 10C0.833252 15.0546 4.94568 19.1667 9.99992 19.1667Z" fill="#FF5A30"/>
<path d="M18.5772 1.9107L9.99977 10.4878L7.25563 7.74403C6.9301 7.41871 6.40276 7.41871 6.07724 7.74403C5.75192 8.06955 5.75192 8.59689 6.07724 8.92241L9.41057 12.2557C9.57354 12.4187 9.78635 12.4999 9.99977 12.4999C10.2132 12.4999 10.426 12.4187 10.589 12.2557L19.7556 3.08908C20.0809 2.76356 20.0809 2.23622 19.7556 1.9107C19.4301 1.58538 18.9028 1.58538 18.5772 1.9107Z" fill="#FF5A30"/>
</g>
<defs>
<clipPath id="clip0_2244_822">
<rect width="20" height="20" fill="white"/>
</clipPath>
</defs>
</svg>
