<svg width="14" height="14" viewBox="0 0 14 14" fill="none" xmlns="http://www.w3.org/2000/svg">
<path fill-rule="evenodd" clip-rule="evenodd" d="M8.00002 11.5834C8.58335 12.0001 9.33335 11.6667 9.33335 10.9167V7.16675L6.25002 10.2501L8.00002 11.5834Z" fill="white"/>
<path fill-rule="evenodd" clip-rule="evenodd" d="M13.25 0.416748C12.9167 0.0834147 12.4167 0.0834147 12.0834 0.416748L9.33335 3.16675V1.08341C9.33335 0.416748 8.50002 8.13822e-05 8.00002 0.416748L5.66669 2.33341C5.33335 2.50008 5.00002 2.66675 4.58335 2.66675H2.66669C1.75002 2.66675 1.00002 3.41675 1.00002 4.33341V7.66675C1.00002 8.58342 1.75002 9.33342 2.66669 9.33342H3.16669L0.416687 12.0834C0.0833537 12.4167 0.0833537 12.9167 0.416687 13.2501C0.75002 13.5834 1.25002 13.5834 1.58335 13.2501L13.25 1.58341C13.5834 1.25008 13.5834 0.750081 13.25 0.416748Z" fill="white"/>
</svg>
