<svg width="142" height="24" viewBox="0 0 142 24" fill="none" xmlns="http://www.w3.org/2000/svg">
<g clip-path="url(#clip0_2195_75)">
<path d="M-0.000183105 12.1091C-0.000183105 5.45458 3.60443 1.41821 9.50289 1.41821C13.9814 1.41821 17.586 4.14549 18.2414 8.18185C18.3506 8.61821 18.0229 8.94549 17.586 8.94549H14.746C14.4183 8.94549 14.1998 8.7273 14.0906 8.40003C13.5444 6.3273 11.7967 5.01821 9.50289 5.01821C6.3352 5.01821 4.36905 7.74549 4.36905 12.1091C4.36905 16.4728 6.3352 19.2 9.61212 19.2C11.906 19.2 13.5444 18 14.1998 16.0364C14.309 15.7091 14.5275 15.4909 14.8552 15.4909H17.6952C18.1321 15.4909 18.4598 15.9273 18.3506 16.2546C17.6952 20.1819 14.1998 22.8 9.61212 22.8C3.60443 22.8 -0.000183105 18.6546 -0.000183105 12.1091Z" fill="white"/>
<path d="M26.5426 22.2549H23.3749C23.0472 22.2549 22.8287 22.0367 22.8287 21.7094V2.83667C22.8287 2.40031 23.2657 1.96395 23.7026 1.96395H31.3487C35.8272 1.96395 38.558 4.47304 38.558 8.40031C38.558 10.6912 37.4657 12.7639 35.6087 13.8549C35.1718 14.073 35.0626 14.6185 35.2811 14.9458L38.6672 21.3821C38.8857 21.7094 38.558 22.1458 38.2303 22.1458H34.6257C34.4072 22.1458 34.1887 22.0367 34.0795 21.8185L30.9118 15.273C30.8026 14.9458 30.4749 14.8367 30.1472 14.8367H27.6349C27.3072 14.8367 27.0887 15.0549 27.0887 15.3821V21.8185C27.198 22.0367 26.8703 22.2549 26.5426 22.2549ZM27.198 11.1276C27.198 11.4549 27.4164 11.673 27.7441 11.673H31.0211C33.2057 11.673 34.4072 10.473 34.4072 8.5094C34.4072 6.54577 33.0964 5.34577 31.0211 5.34577H27.8534C27.5257 5.34577 27.3072 5.56395 27.3072 5.89122V11.1276H27.198Z" fill="white"/>
<path d="M56.2535 22.2549H44.2381C43.8012 22.2549 43.4735 21.9276 43.4735 21.4912V2.72758C43.4735 2.29122 43.8012 1.96395 44.2381 1.96395H56.2535C56.6904 1.96395 57.0181 2.29122 57.0181 2.72758V4.80031C57.0181 5.23667 56.6904 5.56395 56.2535 5.56395H48.2797C47.952 5.56395 47.7335 5.78213 47.7335 6.1094V9.81849C47.7335 10.1458 47.952 10.3639 48.2797 10.3639H55.7073C56.1443 10.3639 56.472 10.6912 56.472 11.1276V12.9821C56.472 13.4185 56.1443 13.7458 55.7073 13.7458H48.2797C47.952 13.7458 47.7335 13.9639 47.7335 14.2912V18.4367C47.7335 18.7639 47.952 18.9821 48.2797 18.9821H56.2535C56.6904 18.9821 57.0181 19.3094 57.0181 19.7458V21.8185C57.0181 21.9276 56.6904 22.2549 56.2535 22.2549Z" fill="white"/>
<path d="M73.1844 17.3458H66.9582C66.6305 17.3458 66.4121 17.5639 66.3028 17.7821L65.1013 21.8185C64.9921 22.1458 64.7736 22.2549 64.4459 22.2549H61.6059C61.169 22.2549 60.8413 21.8185 60.9505 21.3821L67.5044 2.40031C67.6136 2.18213 67.8321 1.96395 68.1598 1.96395H72.2013C72.529 1.96395 72.7475 2.18213 72.8567 2.40031L79.4105 21.3821C79.5198 21.8185 79.1921 22.2549 78.7551 22.2549H75.5875C75.2598 22.2549 75.0413 22.0367 74.9321 21.8185L73.7305 17.7821C73.7305 17.5639 73.4028 17.3458 73.1844 17.3458ZM67.8321 14.1821H72.3105C72.529 14.1821 72.6382 13.9639 72.6382 13.7458L70.2352 6.1094H70.0167L67.6136 13.7458C67.5044 13.9639 67.6136 14.1821 67.8321 14.1821Z" fill="white"/>
<path d="M86.2923 21.4916V6.00074C86.2923 5.67346 86.0738 5.45528 85.7461 5.45528H80.94C80.5031 5.45528 80.0662 5.12801 80.0662 4.58256V2.72801C80.0662 2.29165 80.3938 1.85528 80.94 1.85528H95.7953C96.2323 1.85528 96.6692 2.18255 96.6692 2.72801V4.58256C96.6692 5.01892 96.3415 5.45528 95.7953 5.45528H90.9892C90.6615 5.45528 90.4431 5.67346 90.4431 6.00074V21.6007C90.4431 22.0371 90.1154 22.3644 89.6784 22.3644H86.9477C86.62 22.2553 86.2923 21.928 86.2923 21.4916Z" fill="white"/>
<path d="M113.381 22.2549H101.366C100.929 22.2549 100.601 21.9276 100.601 21.4912V2.72758C100.601 2.29122 100.929 1.96395 101.366 1.96395H113.381C113.818 1.96395 114.146 2.29122 114.146 2.72758V4.80031C114.146 5.23667 113.818 5.56395 113.381 5.56395H105.407C105.08 5.56395 104.861 5.78213 104.861 6.1094V9.81849C104.861 10.1458 105.08 10.3639 105.407 10.3639H112.835C113.272 10.3639 113.6 10.6912 113.6 11.1276V12.9821C113.6 13.4185 113.272 13.7458 112.835 13.7458H105.407C105.08 13.7458 104.861 13.9639 104.861 14.2912V18.4367C104.861 18.7639 105.08 18.9821 105.407 18.9821H113.381C113.818 18.9821 114.146 19.3094 114.146 19.7458V21.8185C114.146 21.9276 113.818 22.2549 113.381 22.2549Z" fill="white"/>
<path d="M128.564 10.5822L121.792 1.74585C121.355 1.30949 120.809 1.09131 120.263 1.09131C119.717 1.09131 119.171 1.30949 118.734 1.74585C117.969 2.61858 117.969 3.92767 118.734 4.8004L124.086 12.0004L118.734 19.2004C117.969 20.0731 117.969 21.3822 118.734 22.2549C119.171 22.6913 119.717 22.9095 120.263 22.9095C120.809 22.9095 121.355 22.6913 121.792 22.2549L128.564 13.4186C129.329 12.764 129.329 11.4549 128.564 10.5822Z" fill="#FF5A30"/>
<path d="M131.451 10.5822L138.224 1.74585C138.66 1.30949 139.207 1.09131 139.753 1.09131C140.299 1.09131 140.845 1.30949 141.282 1.74585C142.047 2.61858 142.047 3.92767 141.282 4.8004L135.93 12.0004L141.282 19.2004C142.047 20.0731 142.047 21.3822 141.282 22.2549C140.845 22.6913 140.299 22.9095 139.753 22.9095C139.207 22.9095 138.66 22.6913 138.224 22.2549L131.451 13.4186C130.687 12.764 130.687 11.4549 131.451 10.5822Z" fill="#FF5A30"/>
</g>
<defs>
<clipPath id="clip0_2195_75">
<rect width="142" height="24" fill="white"/>
</clipPath>
</defs>
</svg>
